<?xml version="1.0" encoding="utf-8"?>
<svg xmlns="http://www.w3.org/2000/svg" viewBox="0 0 500 500">
  <path fill="#1B1A1D" opacity="1.000000" stroke="none" d="M 1022.14 -405.51 C 1022.95 -401.31 1023.24 -397.11 1023.65 -392.92 C 1023.86 -390.79 1024.61 -388.67 1024.55 -386.56 C 1024.38 -380.6 1024.33 -374.58 1023.45 -368.71 C 1022.69 -363.68 1020.59 -358.65 1014.58 -358.1 C 1004.4 -357.17 994.171 -356.27 983.981 -356.43 C 977.611 -356.53 974.227 -362.71 974.614 -369.12 C 975.009 -375.67 974.633 -382.28 974.264 -388.85 C 973.968 -394.13 973.178 -399.37 972.607 -405.07 C 988.961 -405.51 1005.32 -405.51 1022.14 -405.51 Z" data-index="1" style="visibility: hidden; opacity: 1; stroke-width: 1;"/>
  <g transform="matrix(0.458832, 0, 0, 0.458832, 94.309113, 123.099426)" style="">
    <path fill="#FFFFFF" opacity="1.000000" stroke="none" d="M -197.91 -87.878 C -196.11 -99.55 -195.01 -111.37 -192.39 -122.85 C -182.97 -164.03 -160.07 -196.63 -126.89 -222.11 C -94.719 -246.82 -58.049 -258.33 -17.489 -258.28 C 112.171 -258.12 241.821 -258.17 371.471 -258.16 C 479.631 -258.15 587.781 -258.15 695.941 -258.2 C 725.831 -258.22 754.451 -252.06 780.581 -237.71 C 841.451 -204.29 875.191 -152.91 875.841 -82.908 C 876.851 26.069 876.151 135.065 876.151 244.053 C 876.161 376.039 876.101 508.025 876.161 640.012 C 876.201 723.088 817.071 795.488 735.651 811.777 C 733.041 812.3 730.411 812.75 727.091 813.285 C 725.591 813.612 724.801 813.89 723.631 814.128 C 714.451 814.73 705.651 815.923 696.861 815.928 C 508.881 816.046 320.901 816.106 132.921 815.994 C 75.281 815.96 17.641 815.384 -40.229 814.864 C -41.009 814.716 -41.569 814.76 -42.449 814.67 C -45.189 814.264 -47.609 813.992 -50.029 813.719 C -71.789 809.58 -92.539 802.605 -111.35 790.742 C -167.58 755.268 -196.77 704.238 -197.31 637.69 C -197.85 571.043 -197.38 504.387 -197.4 437.736 C -197.43 363.419 -197.51 289.102 -197.59 214.034 C -197.71 212.226 -197.8 211.171 -197.73 209.741 C -197.53 169.564 -197.5 129.762 -197.49 89.959 C -197.49 88.984 -197.75 88.009 -197.75 86.586 C -197.71 79.13 -197.8 72.123 -197.73 64.741 C -197.53 45.891 -197.46 27.416 -197.48 8.941 C -197.49 3.306 -197.75 -2.329 -197.76 -8.413 C -197.71 -17.537 -197.8 -26.211 -197.73 -35.259 C -197.67 -41.743 -197.78 -47.854 -197.75 -54.413 C -197.71 -65.868 -197.81 -76.878 -197.91 -87.878 M 635.181 254.514 C 635.211 253.693 635.241 252.873 635.621 251.357 C 635.651 250.587 635.681 249.818 635.971 248.31 C 636.091 246.759 636.201 245.209 636.781 243.29 C 636.901 242.208 637.011 241.127 637.351 239.349 C 637.481 237.897 637.621 236.444 638.201 234.524 C 638.231 233.691 638.261 232.858 638.631 231.213 C 638.981 227.795 639.331 224.377 640.121 220.544 C 640.111 219.384 640.101 218.224 640.311 216.298 C 640.461 213.862 640.611 211.425 641.201 208.38 C 641.241 206.6 641.291 204.819 641.631 202.185 C 641.721 199.471 641.821 196.757 642.261 193.395 C 642.231 190.951 642.191 188.506 642.311 185.245 C 642.291 183.864 642.261 182.483 642.701 180.436 C 642.671 176.632 642.641 172.828 642.791 168.111 C 642.761 149.729 642.741 131.346 643.171 112.323 C 643.021 107.948 642.871 103.574 642.821 98.432 C 639.811 72.672 626.051 58.193 600.781 53.789 C 589.001 51.736 577.231 49.514 565.571 46.87 C 550.671 43.493 535.891 39.612 520.541 35.456 C 520.231 35.322 519.941 35.156 519.621 35.059 C 477.531 22.14 437.661 4.43 400.951 -20.082 C 400.161 -20.609 399.121 -20.761 398.141 -21.063 C 398.141 -21.063 398.191 -21.025 397.981 -21.522 C 397.661 -21.638 397.341 -21.755 396.491 -22.309 C 383.881 -32.022 371.891 -42.734 358.471 -51.174 C 344.291 -60.089 329.481 -57.768 315.261 -47.907 C 311.041 -44.398 306.831 -40.89 302.621 -37.306 C 302.621 -37.306 302.691 -37.319 302.001 -37.363 C 297.611 -33.977 293.221 -30.591 288.161 -27.028 C 277.151 -19.944 266.141 -12.86 254.411 -5.693 C 216.911 14.431 177.971 30.974 136.571 41.316 C 122.751 44.767 108.881 47.991 94.221 51.212 C 88.681 52.193 83.161 53.341 77.581 54.127 C 56.501 57.102 40.021 71.871 37.131 92.889 C 35.411 105.423 36.521 118.346 36.161 132.013 C 36.121 142.816 35.801 153.627 36.111 164.42 C 36.571 180.323 37.481 196.214 38.021 212.935 C 38.661 218.317 39.291 223.7 39.801 229.981 C 41.331 239.011 42.861 248.041 44.281 257.905 C 44.661 260.068 45.051 262.23 45.371 265.085 C 45.561 265.749 45.751 266.412 45.941 267.886 C 49.931 283.294 53.911 298.703 57.971 314.882 C 61.631 325.751 64.991 336.733 69.001 347.469 C 86.081 393.129 109.611 435.194 140.091 474.072 C 150.691 486.203 161.281 498.333 172.151 511.05 C 177.721 516.26 183.281 521.471 189.101 527.256 C 193.641 531.274 198.191 535.292 203.111 539.864 C 224.251 558.889 247.701 574.615 272.551 588.297 C 277.851 591.213 283.501 593.49 289.681 596.238 C 296.441 599.33 303.111 602.643 309.981 605.473 C 329.241 613.406 348.861 614.959 368.131 606.119 C 385.771 598.024 403.641 590.05 420.131 579.923 C 437.331 569.355 452.981 556.278 469.941 544.087 C 491.321 527.254 510.651 508.294 527.761 487.164 C 536.951 475.819 545.411 463.884 554.741 451.817 C 557.611 447.558 560.561 443.35 563.341 439.03 C 576.011 419.353 587.621 399.106 596.841 376.8 C 601.731 364.983 606.621 353.167 611.891 340.771 C 616.801 324.637 621.701 308.502 626.941 291.667 C 627.241 289.899 627.481 288.117 627.861 286.366 C 629.661 278.142 631.501 269.926 633.801 261.324 C 633.891 260.575 633.991 259.826 634.431 258.312 C 634.531 257.203 634.641 256.094 635.181 254.514 Z" data-index="2" style="opacity: 1; visibility: visible; stroke-width: 1;"/>
    <path fill="#1B1A1D" opacity="1.000000" stroke="none" d="M -196.72 206.52 C -196.63 207.576 -196.54 208.631 -196.58 210.064 C -197.09 212.663 -197.78 214.884 -197.79 217.106 C -197.84 357.918 -197.83 498.731 -197.83 639.544 C -197.83 641.355 -197.83 643.165 -197.83 644.975 C -198.04 644.975 -198.26 644.974 -198.47 644.973 C -198.47 397.95 -198.47 150.927 -198.47 -96.884 C -197.97 -94.793 -197.62 -93.381 -197.01 -91.724 C -196.64 -80.471 -196.54 -69.464 -196.88 -57.71 C -197.12 -50.801 -196.92 -44.64 -196.72 -38.48 C -196.63 -29.806 -196.54 -21.132 -196.88 -11.709 C -197.48 -10.158 -197.8 -9.355 -197.8 -8.553 C -197.83 13.586 -197.84 35.724 -197.78 57.862 C -197.78 59.082 -197.09 60.301 -196.72 61.521 C -196.63 68.528 -196.54 75.535 -196.88 83.29 C -197.48 85.007 -197.8 85.977 -197.81 86.946 C -197.83 125.417 -197.84 163.888 -197.78 202.359 C -197.78 203.746 -197.09 205.133 -196.72 206.52 Z" data-index="4" style="visibility: hidden; opacity: 1; stroke-width: 1;"/>
    <path fill="#1B1A1D" opacity="1.000000" stroke="none" d="M -48.79 810.511 C -46.44 810.397 -44.02 810.669 -41.29 811.266 C -40.86 811.817 -40.76 812.05 -40.69 812.292 C -43.36 811.828 -46.04 811.363 -48.79 810.511 Z" data-index="5" style="visibility: visible; stroke-width: 1;"/>
    <path fill="#444446" opacity="1.000000" stroke="none" d="M 727.2 811.207 C 726.54 811.273 726.01 811.151 725.34 810.8 C 725.97 810.295 726.76 810.017 727.86 809.838 C 727.89 810.297 727.61 810.658 727.2 811.207 Z" data-index="6" style="visibility: visible; stroke-width: 1;"/>
    <path fill="#444446" opacity="1.000000" stroke="none" d="M -40.38 812.331 C -40.76 812.05 -40.86 811.817 -40.97 811.4 C -40.4 811.165 -39.84 811.121 -39.06 811.269 C -38.82 811.632 -38.8 811.802 -38.81 812.226 C -39.25 812.444 -39.66 812.407 -40.38 812.331 Z" data-index="7" style="visibility: visible; stroke-width: 1;"/>
    <path fill="#4061E8" opacity="1.000000" stroke="none" d="M 594.161 -55.584 C 614.767 -50.493 635.306 -45.1 656.011 -40.407 C 672.213 -36.734 688.569 -33.646 704.937 -30.794 C 740.052 -24.674 759.172 -4.554 762.966 32.223 C 762.799 39.281 763.007 45.356 763.216 51.435 C 763.244 76.977 763.272 102.523 762.689 128.877 C 762.216 135.165 762.383 140.641 762.55 146.117 C 762.577 148.036 762.619 149.955 762.147 152.79 C 761.383 155.806 761.105 157.906 760.521 159.755 C 759.937 158.738 759.673 157.974 759.423 156.559 C 759.423 135.496 759.423 115.088 759.423 94.028 C 759.423 71.411 759.784 49.436 759.2 27.486 C 759.035 21.097 756.157 14.78 754.532 8.43 C 753.726 8.467 752.933 8.504 752.141 8.543 C 750.446 12.479 748.376 16.297 747.139 20.368 C 743.901 31.075 741.4 42.01 737.913 52.628 C 733.884 64.917 721.683 73.201 708.592 73.896 C 703.159 74.185 699.13 72.674 695.03 68.822 C 690.431 64.509 684.58 61.536 677.814 57.005 C 677.814 60.746 677.633 61.872 677.841 62.928 C 679.048 69.386 681.3 75.809 681.44 82.282 C 681.898 104.005 681.62 125.748 681.62 148.104 C 681.051 156.719 680.746 164.741 679.842 172.693 C 677.827 190.248 675.506 207.768 673.311 225.869 C 671.755 229.314 670.198 232.194 668.641 234.465 C 669.837 226.084 671.087 218.319 672.268 210.542 C 678.703 167.994 677.799 125.13 677.703 82.309 C 677.646 60.279 668.503 50.029 647.076 45.308 C 616.603 38.596 585.99 32.201 556.003 23.688 C 495.488 6.511 439.403 -20.651 387.142 -55.951 C 390.505 -56.538 393.771 -56.796 397.021 -56.75 C 426.118 -56.343 455.216 -55.913 484.328 -55.436 C 511.106 -54.992 537.897 -54.535 564.674 -53.96 C 570.191 -53.841 575.708 -52.686 581.182 -52.909 C 585.546 -53.088 589.839 -54.64 594.161 -55.584 Z" data-index="8" style="stroke-width: 1;"/>
    <path fill="#CD68FB" opacity="1.000000" stroke="none" d="M 522.264 650.806 C 499.558 667.452 477.812 685.622 453.912 700.308 C 430.997 714.38 406.165 725.46 381.654 736.709 C 354.877 748.993 327.613 746.835 300.849 735.812 C 291.304 731.88 282.035 727.275 272.072 722.386 C 266.889 718.922 262.345 715.935 257.662 713.209 C 251.353 709.55 244.947 706.088 237.916 702.174 C 246.615 701.683 254.563 702.92 261.038 700.398 C 267.681 697.815 272.892 691.553 278.117 687.389 C 276.503 683.991 275.49 681.825 275.059 679.655 C 296.14 681.082 316.634 682.51 337.673 684.046 C 341.203 684.515 344.191 685.337 347.122 685.174 C 369.438 683.928 391.852 683.474 414.029 680.872 C 444.045 677.35 473.268 669.959 501.532 657.443 C 506.785 655.364 511.438 653.127 516.261 651.315 C 518.067 650.636 520.25 650.945 522.264 650.806 Z" data-index="9" style="visibility: visible; stroke-width: 1;"/>
    <path fill="#56A2FB" opacity="1.000000" stroke="none" d="M 224.631 -113.56 C 239.932 -123.41 255.231 -133.26 271.266 -142.85 C 280.27 -144.98 286.439 -149.99 290.72 -157.39 C 290.72 -157.39 290.623 -157.37 291.137 -157.27 C 295.764 -159.67 299.877 -162.16 303.991 -164.67 C 302.727 -156.95 301.252 -149.45 297.321 -143.58 C 287.079 -128.21 273.975 -115.35 259.301 -104.02 C 246.212 -93.944 233.136 -83.789 220.684 -72.953 C 211.277 -64.772 210.82 -59.966 218.394 -49.641 C 225.174 -40.38 231.343 -29.335 246.1 -30.76 C 243.655 -28.838 241.099 -27.834 239.111 -26.152 C 236.888 -24.277 235.192 -21.79 232.996 -19.226 C 215.711 -11.167 199.134 -2.215 181.597 3.995 C 149.873 15.222 117.564 24.812 85.578 34.563 C 88.704 32.482 91.678 30.688 94.859 29.419 C 98.931 27.794 103.183 26.59 107.63 25.114 C 101.113 16.13 105.045 0.399 113.924 -4.328 C 122.165 -8.719 130.46 -13.071 138.338 -18.075 C 145.204 -22.438 149.567 -28.507 149.581 -37.427 C 149.581 -43.045 147.705 -45.043 142.495 -44.739 C 147.384 -49.359 151.998 -53.728 156.987 -57.624 C 174.218 -71.104 191.741 -84.233 208.832 -97.894 C 214.585 -102.5 219.393 -108.3 224.631 -113.56 Z" data-index="10" style="stroke-width: 1;"/>
    <path fill="#5DD6FE" opacity="1.000000" stroke="none" d="M 224.131 -113.51 C 219.393 -108.3 214.585 -102.5 208.832 -97.894 C 191.741 -84.233 174.218 -71.104 156.987 -57.624 C 151.998 -53.728 147.384 -49.359 142.203 -44.382 C 139.465 -42.084 136.935 -40.836 134.81 -39.099 C 118.259 -25.582 101.724 -12.058 85.327 1.64 C 72.792 12.112 60.341 22.703 48.129 33.539 C 43.931 37.262 40.541 41.894 36.302 46.319 C 22.046 49.017 10.428 54.202 6.69 69.688 C 5.329 69.688 4.425 69.69 3.718 69.21 C 5.134 62.482 7.316 56.253 7.4 49.993 C 7.803 23.09 7.565 -3.82 7.565 -29.527 C 5.065 -31.709 3.607 -32.968 2.161 -34.225 C 21.407 -38.851 40.678 -43.33 59.884 -48.126 C 117.412 -62.497 171.521 -85.483 224.131 -113.51 Z" data-index="11" style="stroke-width: 1;"/>
    <path fill="#4484FA" opacity="1.000000" stroke="none" d="M 593.8 -55.926 C 589.839 -54.64 585.546 -53.088 581.182 -52.909 C 575.708 -52.686 570.191 -53.841 564.674 -53.96 C 537.897 -54.535 511.106 -54.992 484.328 -55.436 C 455.216 -55.913 426.118 -56.343 397.021 -56.75 C 393.771 -56.796 390.505 -56.538 386.67 -56.006 C 378.151 -61.51 370.273 -67.516 362.255 -73.316 C 353.514 -79.633 345.024 -87.058 332.921 -82.796 C 335.811 -84.704 338.715 -85.934 341.494 -87.404 C 343.676 -88.564 347.067 -89.634 347.595 -91.414 C 351.277 -104.01 362.95 -105.64 372.51 -109.25 C 379.375 -111.84 387.323 -111.63 394.812 -112.51 C 399.578 -113.06 404.776 -114.72 409.111 -113.49 C 420.116 -110.35 426.661 -118.46 436.333 -122.02 C 433.54 -124.47 431.455 -126.1 429.608 -127.97 C 427.439 -130.16 425.481 -132.54 423.439 -134.84 C 424.716 -134.38 426.161 -134.17 427.259 -133.44 C 478.27 -99.38 533.672 -74.773 592.16 -56.819 C 592.605 -56.685 593.008 -56.455 593.8 -55.926 Z" data-index="12" style="stroke-width: 1;"/>
    <path fill="#64DCFD" opacity="1.000000" stroke="none" d="M 1.605 -34.302 C 3.607 -32.968 5.065 -31.709 7.565 -29.527 C 7.565 -3.82 7.803 23.09 7.4 49.993 C 7.316 56.253 5.134 62.482 3.648 69.687 C -2.147 78.188 -7.664 85.73 -13.681 93.155 C -16.348 90.821 -18.209 87.316 -20.78 86.686 C -24.769 85.712 -29.244 86.616 -33.495 86.864 C -45.584 87.573 -57.689 88.285 -69.778 89.145 C -74.265 89.464 -76.03 87.734 -75.781 83.209 C -75.641 80.54 -74.446 76.753 -79.379 76.628 C -79.144 58.913 -80.685 40.956 -78.294 23.539 C -74.279 -5.667 -51.379 -26.191 -22.087 -30.323 C -14.334 -31.416 -6.663 -33.011 1.605 -34.302 Z" data-index="13" style="stroke-width: 1;"/>
    <path fill="#8164F0" opacity="1.000000" stroke="none" d="M 719.846 368.793 C 713.052 385.215 706.258 401.633 698.726 418.213 C 696.156 418.689 693.89 418.428 692.585 419.425 C 686.942 423.745 681.496 428.343 676.104 433.002 C 655.233 451.086 632.222 465.761 606.208 475.188 C 591.02 480.699 575.388 485.009 560.061 489.407 C 563.589 484.037 567.189 479.237 570.372 474.179 C 582.294 455.292 594.078 436.322 606.167 417.777 C 611.85 416.708 611.197 412.258 611.239 408.101 C 611.142 408.004 611.1 407.732 611.614 407.892 C 612.989 407.514 614.267 407.183 614.67 406.4 C 619.381 397.352 623.967 388.234 628.636 379.028 C 629.915 379.512 631.429 380.67 632.777 380.502 C 639.28 379.702 645.853 379 652.19 377.431 C 669.754 373.082 687.276 368.531 704.688 363.616 C 711.33 361.741 717.596 358.784 719.846 368.793 Z" data-index="14" style="visibility: visible; stroke-width: 1;"/>
    <path fill="#428EFC" opacity="1.000000" stroke="none" d="M 423.396 -134.82 C 425.481 -132.54 427.439 -130.16 429.608 -127.97 C 431.455 -126.1 433.54 -124.47 436.333 -122.02 C 426.661 -118.46 420.116 -110.35 409.111 -113.49 C 404.776 -114.72 399.578 -113.06 394.812 -112.51 C 387.323 -111.63 379.375 -111.84 372.51 -109.25 C 362.95 -105.64 351.277 -104.01 347.595 -91.414 C 347.067 -89.634 343.676 -88.564 341.494 -87.404 C 338.715 -85.934 335.811 -84.704 332.629 -82.502 C 328.197 -78.627 324.208 -75.477 320.012 -72.645 C 308.575 -64.946 297.056 -57.383 285.635 -50.249 C 291.761 -55.567 297.847 -60.374 303.879 -65.251 C 305.24 -66.354 307.354 -67.6 307.492 -68.953 C 308.341 -76.863 308.882 -84.813 309.159 -92.764 C 309.757 -109.6 310.383 -126.46 310.479 -143.3 C 310.548 -152.96 309.618 -162.62 309.133 -172.27 C 327.946 -185.81 348.526 -189.03 368.229 -176.64 C 386.879 -164.92 403.539 -150.02 421.631 -135.95 C 422.604 -135.16 423.006 -134.96 423.424 -134.75 C 423.424 -134.75 423.355 -134.8 423.396 -134.82 Z" data-index="15" style="stroke-width: 1;"/>
    <path fill="#4853DC" opacity="1.000000" stroke="none" d="M 64.414 552.399 C 22.421 499.196 -10.276 440.744 -34.01 377.296 C -39.581 362.378 -44.251 347.118 -48.892 331.549 C -44.988 336.568 -41.5 342.052 -37.859 347.974 C -32.495 356.548 -27.327 364.703 -22.101 372.823 C -9.317 392.726 6.594 409.878 24.602 425.77 C 42.264 441.223 62.205 452.123 83.563 460.256 C 90.594 462.932 98.597 463.034 106.421 464.703 C 113.188 474.05 119.692 483.004 125.681 491.946 C 122.79 489.59 120.233 487.402 118.051 484.879 C 114.258 480.467 110.686 475.849 106.087 470.163 C 104.963 474.48 103.767 477.064 103.711 479.676 C 103.544 486.867 99.362 491.551 94.638 496.166 C 90.886 499.815 87.26 503.644 83.979 507.716 C 77.934 515.23 71.335 520.862 60.648 520.098 C 56.494 519.801 52.172 521.968 46.516 523.356 C 51.518 530.016 55.673 534.91 59.063 540.283 C 61.398 543.974 62.663 548.335 64.414 552.399 Z" data-index="16" style="visibility: visible; stroke-width: 1;"/>
    <path fill="#56A2FB" opacity="1.000000" stroke="none" d="M -66.054 265.584 C -66.316 264.663 -66.581 263.742 -66.303 261.969 C -64.872 257.533 -61.912 253.416 -68.207 251.683 C -70.332 239.134 -72.46 226.587 -74.001 213.348 C -72.014 211.525 -69.875 210.655 -69.389 209.218 C -67.345 203.342 -65.067 203.959 -61.286 207.892 C -58.312 210.982 -54.826 211.69 -50.032 209.977 C -41.472 206.911 -32.495 204.375 -23.491 203.295 C -13.109 202.045 -2.537 202.822 6.912 210.587 C 6.079 195.161 5.329 181.263 4.58 167.367 C 4.856 167.336 5.134 167.303 5.412 167.272 C 6.204 169.022 6.982 170.771 7.899 173.046 C 8.206 176.05 8.4 178.529 8.344 181.357 C 8.469 183.72 8.859 185.736 9.47 188.319 C 9.831 191.341 9.957 193.796 9.817 196.567 C 9.971 198.478 10.387 200.07 11.054 202.211 C 11.401 204.735 11.499 206.713 11.361 208.928 C 11.361 209.91 11.624 210.663 12.027 211.962 C 12.917 218.191 13.652 223.871 14.152 229.753 C 14.263 230.715 14.598 231.473 15.209 232.774 C 18.322 247.785 21.17 262.253 23.547 276.882 C 22.184 279.515 21.296 281.99 20.238 284.965 C 17.113 284.185 13.972 283.591 10.958 282.619 C -9.664 275.99 -30.37 277.278 -51.019 282.23 C -58.618 284.051 -58.967 283.629 -60.704 275.729 C -61.481 272.246 -59.037 266.094 -66.054 265.584 Z" data-index="17" style="stroke-width: 1;"/>
    <path fill="#9F68F6" opacity="1.000000" stroke="none" d="M 559.95 489.857 C 575.388 485.009 591.02 480.699 606.208 475.188 C 632.222 465.761 655.233 451.086 676.104 433.002 C 681.496 428.343 686.942 423.745 692.585 419.425 C 693.89 418.428 696.156 418.689 698.434 418.6 C 686.65 449.049 670.517 477.184 652.912 504.526 C 649.049 510.529 644.95 516.379 640.224 522.286 C 642.823 516.196 646.104 510.101 649.465 504.052 C 651.453 500.502 653.551 497.025 655.607 493.515 C 652.703 492.637 651.369 492.803 650.16 493.275 C 630.652 500.846 613.337 512.354 600.622 528.577 C 588.491 544.059 571.081 549.083 555.225 556.899 C 559.171 548.055 565.981 540.019 559.143 530.247 C 555.989 525.738 552.834 520.575 548.375 517.844 C 545.012 515.78 543.816 514.105 543.914 510.336 C 545.151 508.58 546.319 507.206 548.055 505.823 C 549.833 503.837 551.028 501.856 552.294 499.642 C 552.502 499.095 552.751 498.924 553.641 498.887 C 556.211 496.014 558.254 493.149 560.158 490.217 C 560.033 490.15 559.95 489.857 559.95 489.857 Z" data-index="18" style="visibility: visible; stroke-width: 1;"/>
    <path fill="#AC68F4" opacity="1.000000" stroke="none" d="M 555.155 557.396 C 571.081 549.083 588.491 544.059 600.622 528.577 C 613.337 512.354 630.652 500.846 650.16 493.275 C 651.369 492.803 652.703 492.637 655.607 493.515 C 653.551 497.025 651.453 500.502 649.465 504.052 C 646.104 510.101 642.823 516.196 639.863 522.561 C 627.997 539.063 616.241 555.648 603.471 571.413 C 579.695 600.775 552.834 627.121 522.695 650.657 C 520.25 650.945 518.067 650.636 516.261 651.315 C 511.438 653.127 506.785 655.364 501.074 657.243 C 498.239 656.393 496.391 655.73 495.057 655.252 C 497.127 650.188 500.156 645.711 500.67 640.965 C 501.851 629.83 508.021 623.009 517.261 618.04 C 535.172 608.413 542.496 591.268 547.944 573.273 C 549.694 567.494 550.584 561.732 555.155 557.396 Z" data-index="19" style="visibility: visible; stroke-width: 1;"/>
    <path fill="#4D99FE" opacity="1.000000" stroke="none" d="M 308.659 -172.2 C 309.618 -162.62 310.548 -152.96 310.479 -143.3 C 310.383 -126.46 309.757 -109.6 309.159 -92.764 C 308.882 -84.813 308.341 -76.863 307.492 -68.953 C 307.354 -67.6 305.24 -66.354 303.879 -65.251 C 297.847 -60.374 291.761 -55.567 285.412 -50.169 C 285.12 -49.608 284.648 -49.705 284.119 -49.731 C 277.477 -48.494 276.227 -47.403 277.061 -43.882 C 275.156 -42.671 273.517 -41.846 271.683 -41.281 C 271.169 -41.189 270.848 -40.84 270.391 -40.076 C 257.913 -32.963 245.586 -26.264 233.274 -19.566 C 235.192 -21.79 236.888 -24.277 239.111 -26.152 C 241.099 -27.834 243.655 -28.838 246.1 -30.76 C 231.343 -29.335 225.174 -40.38 218.394 -49.641 C 210.82 -59.966 211.277 -64.772 220.684 -72.953 C 233.136 -83.789 246.212 -93.944 259.301 -104.02 C 273.975 -115.35 287.079 -128.21 297.321 -143.58 C 301.252 -149.45 302.727 -156.95 303.991 -164.67 C 299.877 -162.16 295.764 -159.67 291.137 -157.31 C 296.472 -162.36 302.324 -167.22 308.659 -172.2 Z" data-index="20" style="stroke-width: 1;"/>
    <path fill="#58AFFD" opacity="1.000000" stroke="none" d="M 7.775 172.52 C 6.982 170.771 6.204 169.022 5.412 167.272 C 5.134 167.303 4.856 167.336 4.58 167.367 C 5.329 181.263 6.079 195.161 6.912 210.587 C -2.537 202.822 -13.109 202.045 -23.491 203.295 C -32.495 204.375 -41.472 206.911 -50.032 209.977 C -54.826 211.69 -58.312 210.982 -61.286 207.892 C -65.067 203.959 -67.345 203.342 -69.389 209.218 C -69.875 210.655 -72.014 211.525 -73.905 212.722 C -75.294 205.31 -76.169 197.83 -76.393 189.811 C -74.794 191.29 -73.405 193.229 -73.029 195.35 C -72.446 198.514 -72.584 201.807 -72.418 205.045 C -69.666 203 -68.388 200.853 -67.61 198.533 C -60.176 176.409 -50.851 155.118 -39.013 135.012 C -30.716 120.918 -21.823 107.173 -13.194 93.271 C -7.664 85.73 -2.147 78.188 3.453 70.17 C 4.425 69.69 5.329 69.688 6.788 70.331 C 7.4 100.268 7.483 129.558 7.565 158.85 C 7.581 163.408 7.705 167.964 7.775 172.52 Z" data-index="21" style="opacity: 1; stroke-width: 1;"/>
    <path fill="#558EFA" opacity="1.000000" stroke="none" d="M -66.054 266.146 C -59.037 266.094 -61.481 272.246 -60.704 275.729 C -58.967 283.629 -58.618 284.051 -51.019 282.23 C -30.37 277.278 -9.664 275.99 10.958 282.619 C 13.972 283.591 17.113 284.185 20.238 284.965 C 21.296 281.99 22.184 279.515 23.755 277.382 C 29.355 295.324 34.26 312.929 38.749 330.812 C 39.388 336.133 40.791 341.138 41.332 346.234 C 41.569 348.354 40.055 352.576 39.234 352.604 C 31.34 352.849 22.574 354.508 15.696 351.717 C 0.827 345.68 -14.166 341.647 -30.091 341.011 C -31.785 340.945 -33.676 342.886 -35.259 344.159 C -36.373 345.053 -37.122 346.395 -38.026 347.538 C -41.5 342.052 -44.988 336.568 -48.947 331.014 C -54.978 309.532 -60.509 288.12 -66.054 266.146 Z" data-index="22" style="stroke-width: 1;"/>
    <path fill="#7368F2" opacity="1.000000" stroke="none" d="M 720.112 368.391 C 717.596 358.784 711.33 361.741 704.688 363.616 C 687.276 368.531 669.754 373.082 652.19 377.431 C 645.853 379 639.28 379.702 632.777 380.502 C 631.429 380.67 629.915 379.512 628.636 379.028 C 623.967 388.234 619.381 397.352 614.67 406.4 C 614.267 407.183 612.989 407.514 611.738 407.433 C 618.061 391.527 624.981 376.341 631.373 360.93 C 636.807 347.799 641.615 334.407 647.242 321.123 C 649.328 318.355 650.897 315.601 652.983 312.921 C 660.625 314.221 668.03 317.301 674.853 316.326 C 696.532 313.225 715.999 304.672 731.687 288.643 C 734.507 285.761 738.426 283.946 743.318 280.638 C 742.137 283.614 741.372 284.782 741.232 286.022 C 740.664 290.904 736.009 295.705 740.816 300.729 C 734.007 323.15 727.198 345.569 720.112 368.391 Z" data-index="23" style="opacity: 1; stroke-width: 1;"/>
    <path fill="#7052E3" opacity="1.000000" stroke="none" d="M 151.833 643.874 C 145.509 638.291 139.187 632.707 132.712 626.184 C 128.57 620.173 124.596 615.1 119.843 609.063 C 138.479 605.034 148.525 590.477 161.211 579.486 C 166.882 574.562 172.022 568.972 177.135 563.438 C 180.985 559.276 183.751 560.325 187.391 563.917 C 191.157 567.649 195.771 570.539 200.495 573.754 C 213.488 583.902 226.021 594.092 238.277 604.641 C 232.413 601.96 226.841 598.917 221.034 595.745 C 221.034 597.647 221.866 600.312 220.893 601.498 C 214.098 609.808 207.985 619.174 199.607 625.519 C 191.572 631.604 181.042 634.357 171.73 638.816 C 170.105 639.594 169.049 641.579 167.728 643.004 C 168.979 644.163 170.203 645.367 171.509 646.469 C 174.773 649.228 178.081 651.938 180.859 654.624 C 173.898 651.683 167.505 648.611 160.948 645.97 C 158.098 644.818 154.889 644.546 151.833 643.874 Z" data-index="24" style="visibility: visible; stroke-width: 1;"/>
    <path fill="#5C65EE" opacity="1.000000" stroke="none" d="M 652.467 312.843 C 650.897 315.601 649.328 318.355 647.298 320.588 C 650.995 305.145 655.331 290.272 659.276 275.298 C 662.321 263.78 664.862 252.134 668.073 240.463 C 668.433 239.379 668.365 238.377 668.211 236.978 C 668.308 236.077 668.476 235.576 668.656 235.075 C 670.198 232.194 671.755 229.314 673.811 225.784 C 678.244 221.269 682.718 219.998 688.025 222.064 C 689.027 222.455 690.528 222.629 691.389 222.167 C 702.02 216.511 715.609 216.037 723.196 205.121 C 731.687 192.896 739.997 180.497 747.611 167.708 C 750.612 162.647 753.517 158.525 759.423 157.21 C 759.673 157.974 759.937 158.738 760.521 160.204 C 761.271 161.971 761.675 163.036 762.091 164.099 C 761.966 167.871 761.826 171.643 761.119 176.227 C 760.521 179.65 760.507 182.258 760.492 184.869 C 760.284 188.253 760.076 191.639 759.367 195.828 C 758.908 198.256 758.95 199.88 758.991 201.502 C 758.505 206.252 758.02 211.001 756.963 216.47 C 756.366 218.459 756.338 219.73 756.309 221.001 C 756.129 223.018 755.934 225.038 755.199 227.906 C 754.532 230.186 754.421 231.615 754.324 233.044 C 754.155 235.198 754.004 237.353 753.169 239.842 C 752.058 237.571 750.989 234.889 751.28 232.369 C 752.073 225.769 753.6 219.261 754.532 212.671 C 754.934 209.796 754.601 206.817 754.601 203.888 C 751.265 207.908 750.349 212.672 747.792 216.252 C 737.913 230.049 728.296 244.175 717.054 256.834 C 705.549 269.807 691.542 278.802 672.45 273.226 C 670.032 272.521 664.71 274.557 663.988 276.515 C 659.623 288.432 656.206 300.697 652.467 312.843 Z" data-index="25" style="stroke-width: 1;"/>
    <path fill="#5453DF" opacity="1.000000" stroke="none" d="M 64.595 552.81 C 62.663 548.335 61.398 543.974 59.063 540.283 C 55.673 534.91 51.518 530.016 46.516 523.356 C 52.172 521.968 56.494 519.801 60.648 520.098 C 71.335 520.862 77.934 515.23 83.979 507.716 C 87.26 503.644 90.886 499.815 94.638 496.166 C 99.362 491.551 103.544 486.867 103.711 479.676 C 103.767 477.064 104.963 474.48 106.087 470.163 C 110.686 475.849 114.258 480.467 118.051 484.879 C 120.233 487.402 122.79 489.59 125.972 492.072 C 126.985 492.769 127.222 493.326 127.432 494.419 C 128.278 495.851 129.168 496.752 130.334 498.006 C 138.548 507.758 146.468 517.156 153.847 526.584 C 150.165 524.577 146.996 522.54 143.41 520.231 C 142.564 522.849 141.646 525.143 141.105 527.523 C 138.465 539.159 131.086 546.601 120.135 550.338 C 115.23 552.015 109.797 552.133 104.683 553.276 C 95.053 555.429 85.48 557.814 74.307 560.475 C 82.937 570.296 90.134 578.022 96.777 586.21 C 101.251 591.731 104.921 597.906 108.949 603.791 C 94.22 586.932 79.506 570.078 64.595 552.81 Z" data-index="26" style="visibility: visible; stroke-width: 1;"/>
    <path fill="#6153E1" opacity="1.000000" stroke="none" d="M 109.13 604.197 C 104.921 597.906 101.251 591.731 96.777 586.21 C 90.134 578.022 82.937 570.296 74.307 560.475 C 85.48 557.814 95.053 555.429 104.683 553.276 C 109.797 552.133 115.23 552.015 120.135 550.338 C 131.086 546.601 138.465 539.159 141.105 527.523 C 141.646 525.143 142.564 522.849 143.41 520.231 C 146.996 522.54 150.165 524.577 154.221 526.803 C 168.91 540.962 182.721 554.912 196.465 568.928 C 197.855 570.346 198.842 572.165 200.023 573.799 C 195.771 570.539 191.157 567.649 187.391 563.917 C 183.751 560.325 180.985 559.276 177.135 563.438 C 172.022 568.972 166.882 574.562 161.211 579.486 C 148.525 590.477 138.479 605.034 119.843 609.063 C 124.596 615.1 128.57 620.173 132.544 625.785 C 124.791 619.085 117.064 611.844 109.13 604.197 Z" data-index="27" style="visibility: visible; stroke-width: 1;"/>
    <path fill="#6669F0" opacity="1.000000" stroke="none" d="M 652.983 312.921 C 656.206 300.697 659.623 288.432 663.988 276.515 C 664.71 274.557 670.032 272.521 672.45 273.226 C 691.542 278.802 705.549 269.807 717.054 256.834 C 728.296 244.175 737.913 230.049 747.792 216.252 C 750.349 212.672 751.265 207.908 754.601 203.888 C 754.601 206.817 754.934 209.796 754.532 212.671 C 753.6 219.261 752.073 225.769 751.28 232.369 C 750.989 234.889 752.058 237.571 752.99 240.356 C 753.434 241.603 753.393 242.672 752.78 244.378 C 752.183 246.27 752.156 247.527 752.127 248.781 C 751.988 250.324 751.836 251.866 751.127 254.182 C 750.418 256.015 750.294 257.069 750.154 258.124 C 747.626 269.545 745.069 280.961 742.567 292.39 C 742.04 294.821 741.705 297.298 741.053 300.243 C 736.009 295.705 740.664 290.904 741.232 286.022 C 741.372 284.782 742.137 283.614 743.318 280.638 C 738.426 283.946 734.507 285.761 731.687 288.643 C 715.999 304.672 696.532 313.225 674.853 316.326 C 668.03 317.301 660.625 314.221 652.983 312.921 Z" data-index="28" style="opacity: 1; stroke-width: 1;"/>
    <path fill="#5DD6FE" opacity="1.000000" stroke="none" d="M -13.681 93.155 C -21.823 107.173 -30.716 120.918 -39.013 135.012 C -50.851 155.118 -60.176 176.409 -67.61 198.533 C -68.388 200.853 -69.666 203 -72.418 205.045 C -72.584 201.807 -72.446 198.514 -73.029 195.35 C -73.405 193.229 -74.794 191.29 -76.267 189.237 C -77.809 167.116 -79.073 145.035 -79.712 122.936 C -80.143 107.939 -79.699 92.917 -79.505 77.265 C -74.446 76.753 -75.641 80.54 -75.781 83.209 C -76.03 87.734 -74.265 89.464 -69.778 89.145 C -57.689 88.285 -45.584 87.573 -33.495 86.864 C -29.244 86.616 -24.769 85.712 -20.78 86.686 C -18.209 87.316 -16.348 90.821 -13.681 93.155 Z" data-index="29" style="stroke-width: 1;"/>
    <path fill="#BF66FB" opacity="1.000000" stroke="none" d="M 152.095 644.258 C 154.889 644.546 158.098 644.818 160.948 645.97 C 167.505 648.611 173.898 651.683 181.36 654.729 C 204.594 661.374 226.771 668.042 249.074 674.272 C 257.383 676.596 265.999 677.892 274.461 679.657 C 275.49 681.825 276.503 683.991 278.117 687.389 C 272.892 691.553 267.681 697.815 261.038 700.398 C 254.563 702.92 246.615 701.683 237.916 702.174 C 244.947 706.088 251.353 709.55 257.662 713.209 C 262.345 715.935 266.889 718.922 271.585 722.264 C 264.053 719.16 256.203 715.996 248.838 711.944 C 214.306 692.932 181.722 671.08 152.095 644.258 Z" data-index="30" style="visibility: visible; stroke-width: 1;"/>
    <path fill="#262426" opacity="1.000000" stroke="none" d="M -196.56 61.146 C -197.09 60.301 -197.78 59.082 -197.78 57.862 C -197.84 35.724 -197.83 13.586 -197.8 -8.553 C -197.8 -9.355 -197.48 -10.158 -197.02 -11.26 C -196.58 -5.924 -196.32 -0.289 -196.31 5.346 C -196.29 23.821 -196.36 42.296 -196.56 61.146 Z" data-index="32" style="visibility: hidden; opacity: 1; stroke-width: 2; stroke: rgb(13, 153, 255);"/>
    <path fill="#262426" opacity="1.000000" stroke="none" d="M -196.56 -38.854 C -196.92 -44.64 -197.12 -50.801 -197.02 -57.261 C -196.61 -51.449 -196.5 -45.338 -196.56 -38.854 Z" data-index="33" style="visibility: visible; stroke-width: 1;"/>
    <path fill="#4D99FE" opacity="1.000000" stroke="none" d="M 290.233 -157.42 C 286.439 -149.99 280.27 -144.98 271.738 -142.97 C 277.561 -148.05 283.661 -152.75 290.233 -157.42 Z" data-index="34" style="stroke-width: 1;"/>
    <path fill="#7476FC" opacity="1.000000" stroke="none" d="M 763.522 50.988 C 763.007 45.356 762.799 39.281 762.896 32.756 C 763.425 38.387 763.633 44.464 763.522 50.988 Z" data-index="35" style="stroke-width: 1;"/>
    <path fill="#7476FC" opacity="1.000000" stroke="none" d="M 762.869 145.655 C 762.383 140.641 762.216 135.165 762.55 129.511 C 763.105 134.62 763.147 139.907 762.869 145.655 Z" data-index="36" style="stroke-width: 1;"/>
    <path fill="#7476FC" opacity="1.000000" stroke="none" d="M 762.34 163.65 C 761.675 163.036 761.271 161.971 760.853 160.458 C 761.105 157.906 761.383 155.806 762.036 153.357 C 762.48 156.405 762.535 159.803 762.34 163.65 Z" data-index="37" style="stroke-width: 1;"/>
    <path fill="#558EFA" opacity="1.000000" stroke="none" d="M -68.29 252.262 C -61.912 253.416 -64.872 257.533 -66.262 261.486 C -67.29 258.851 -67.833 255.847 -68.29 252.262 Z" data-index="38" style="stroke-width: 1;"/>
    <path fill="#7476FC" opacity="1.000000" stroke="none" d="M 760.799 184.444 C 760.507 182.258 760.521 179.65 760.91 176.82 C 761.229 179.074 761.16 181.549 760.799 184.444 Z" data-index="39" style="stroke-width: 1;"/>
    <path fill="#7476FC" opacity="1.000000" stroke="none" d="M 759.297 201.214 C 758.95 199.88 758.908 198.256 759.215 196.36 C 759.575 197.701 759.589 199.314 759.297 201.214 Z" data-index="40" style="stroke-width: 1;"/>
    <path fill="#7476FC" opacity="1.000000" stroke="none" d="M 754.642 232.788 C 754.421 231.615 754.532 230.186 755.031 228.39 C 755.281 229.527 755.128 231.028 754.642 232.788 Z" data-index="41" style="stroke-width: 1;"/>
    <path fill="#7476FC" opacity="1.000000" stroke="none" d="M 752.433 248.455 C 752.156 247.527 752.183 246.27 752.544 244.862 C 752.822 245.849 752.78 246.987 752.433 248.455 Z" data-index="42" style="stroke-width: 1;"/>
    <path fill="#7476FC" opacity="1.000000" stroke="none" d="M 756.615 220.676 C 756.338 219.73 756.366 218.459 756.727 217.034 C 757.019 218.036 756.978 219.194 756.615 220.676 Z" data-index="43" style="stroke-width: 1;"/>
    <path fill="#7476FC" opacity="1.000000" stroke="none" d="M 750.488 257.859 C 750.294 257.069 750.418 256.015 750.891 254.714 C 751.086 255.51 750.946 256.55 750.488 257.859 Z" data-index="44" style="stroke-width: 1;"/>
    <path fill="#4484FA" opacity="1.000000" stroke="none" d="M 423.285 -135.08 C 423.006 -134.96 422.604 -135.16 421.992 -135.64 C 422.243 -135.76 422.687 -135.6 423.285 -135.08 Z" data-index="45" style="stroke-width: 1;"/>
    <path fill="#FEFEFF" opacity="1.000000" stroke="none" d="M 200.495 573.754 C 198.842 572.165 197.855 570.346 196.465 568.928 C 182.721 554.912 168.91 540.962 154.75 526.774 C 146.468 517.156 138.548 507.758 130.307 497.526 C 129.141 495.754 128.292 494.818 127.445 493.884 C 127.222 493.326 126.985 492.769 126.472 492.087 C 119.692 483.004 113.188 474.05 106.393 464.224 C 93.872 442.73 81.631 422.107 69.264 400.991 C 67.957 398.002 66.693 395.547 65.623 393.012 C 56.786 372.194 47.975 351.361 39.165 330.534 C 34.26 312.929 29.355 295.324 24.242 277.22 C 21.17 262.253 18.322 247.785 15.377 232.429 C 14.974 230.879 14.682 230.215 14.39 229.551 C 13.652 223.871 12.917 218.191 12.207 211.708 C 12.027 210.169 11.818 209.432 11.611 208.692 C 11.499 206.713 11.401 204.735 11.234 201.757 C 10.817 199.254 10.443 197.752 10.068 196.249 C 9.957 193.796 9.831 191.341 9.679 187.836 C 9.29 184.861 8.956 182.936 8.61 181.01 C 8.4 178.529 8.206 176.05 7.899 173.046 C 7.705 167.964 7.581 163.408 7.565 158.85 C 7.483 129.558 7.4 100.268 7.234 70.334 C 10.428 54.202 22.046 49.017 36.873 46.352 C 39.916 45.687 41.916 45.182 43.918 44.716 C 57.786 41.502 71.64 38.295 85.507 35.086 C 117.564 24.812 149.873 15.222 181.597 3.995 C 199.134 -2.215 215.711 -11.167 232.996 -19.226 C 245.586 -26.264 257.913 -32.963 270.751 -40.129 C 271.474 -40.737 271.669 -40.879 271.878 -41.022 C 273.517 -41.846 275.156 -42.671 277.504 -44.008 C 280.354 -46.248 282.506 -47.976 284.648 -49.705 C 284.648 -49.705 285.12 -49.608 285.355 -49.686 C 297.056 -57.383 308.575 -64.946 320.012 -72.645 C 324.208 -75.477 328.197 -78.627 332.588 -81.927 C 345.024 -87.058 353.514 -79.633 362.255 -73.316 C 370.273 -67.516 378.151 -61.51 386.558 -55.536 C 439.403 -20.651 495.488 6.511 556.003 23.688 C 585.99 32.201 616.603 38.596 647.076 45.308 C 668.503 50.029 677.646 60.279 677.703 82.309 C 677.799 125.13 678.703 167.994 672.268 210.542 C 671.087 218.319 669.837 226.084 668.641 234.465 C 668.476 235.576 668.308 236.077 668.004 237.336 C 667.794 238.907 667.712 239.727 667.641 240.543 C 664.862 252.134 662.321 263.78 659.276 275.298 C 655.331 290.272 650.995 305.145 646.77 320.597 C 641.615 334.407 636.807 347.799 631.373 360.93 C 624.981 376.341 618.061 391.527 611.239 407.271 C 611.1 407.732 611.142 408.004 610.821 408.247 C 608.987 411.454 607.446 414.419 605.916 417.385 C 594.078 436.322 582.294 455.292 570.372 474.179 C 567.189 479.237 563.589 484.037 560.061 489.407 C 559.95 489.857 560.033 490.15 559.7 490.261 C 557.295 493.211 555.196 496.053 553.113 498.893 C 552.751 498.924 552.502 499.095 551.89 499.907 C 550.111 502.216 548.805 504.025 547.485 505.833 C 546.319 507.206 545.151 508.58 543.496 510.6 C 508.272 552.347 469.544 589.116 424.035 618.097 C 399.08 633.991 374.747 651.499 344.705 658.631 C 342.731 658.611 341.3 658.674 339.564 658.471 C 338.466 658.201 337.673 658.196 336.366 657.987 C 316.872 648.908 297.459 640.838 279.075 630.9 C 264.902 623.245 252.007 613.241 238.542 604.28 C 226.021 594.092 213.488 583.902 200.495 573.754 M 275.018 487.832 C 275.198 497.481 274.253 507.309 275.767 516.74 C 278.728 534.994 292.068 546.58 305.157 558.005 C 305.615 558.402 306.824 557.922 308.103 558.677 C 322.637 573.532 339.729 579.216 358.877 569.513 C 375.428 561.131 389.838 549.347 401.205 534.401 C 403.289 531.658 403.899 527.801 405.873 524.067 C 406.055 523.604 406.25 523.141 406.596 521.701 C 406.693 520.716 406.79 519.729 407.805 518.132 C 408.097 505.41 408.445 492.688 408.569 479.966 C 408.583 478.533 407.485 476.904 406.513 475.683 C 399.967 467.493 392.505 460.535 380.973 457.552 C 368.898 454.991 366.062 451.505 365.965 439.175 C 365.855 426.23 365.743 413.285 365.881 399.262 C 364.368 389.4 370.176 384.108 377.846 379.877 C 383.682 376.658 389.615 373.561 395.16 369.873 C 404.568 363.607 409.876 354.837 409.653 343.225 C 409.528 336.332 409.292 329.439 409.347 321.616 C 409.5 312.529 412.391 304.82 420.395 299.701 C 423.897 297.453 427.397 295.195 430.969 293.04 C 448.59 282.374 466.348 271.936 483.801 261.007 C 490.998 256.497 498.28 251.574 500.92 241.843 C 506.173 232.274 506.923 222.008 506.047 210.173 C 505.936 194.819 505.813 179.467 506.061 162.874 C 506.105 151.412 507.285 139.792 505.77 128.539 C 504.714 120.681 499.947 113.321 496.821 104.769 C 490.791 95.506 481.245 90.976 471.212 85.548 C 466.613 82.883 462.04 80.204 457.441 77.552 C 428.051 60.589 398.704 43.556 369.245 26.703 C 356.405 19.357 342.83 17.436 327.502 22.723 C 321.124 25.414 314.426 27.516 308.438 30.901 C 273.642 50.6 239.237 71.003 204.233 90.356 C 182.847 102.182 174.69 119.787 176.788 144.43 C 176.663 170.577 176.093 196.731 176.566 222.866 C 176.873 239.377 184.265 252.702 198.716 261.453 C 210.375 268.518 222.367 275.066 233.858 282.395 C 246.837 290.675 259.412 299.571 272.211 308.192 C 272.211 308.192 272.253 308.209 272.239 308.527 C 272.239 308.527 272.447 308.767 272.655 309.931 C 273.35 315.137 274.559 320.338 274.629 325.555 C 275.018 351.4 275.101 377.251 274.907 404.36 C 275.031 422.462 275.142 440.566 274.894 459.935 C 275.073 468.827 275.254 477.72 275.018 487.832 Z" data-index="46" style="opacity: 1; stroke-width: 1;"/>
    <path fill="#4961EB" opacity="1.000000" stroke="none" d="M 681.62 147.482 C 681.62 125.748 681.898 104.005 681.44 82.282 C 681.3 75.809 679.048 69.386 677.841 62.928 C 677.633 61.872 677.814 60.746 677.814 57.005 C 684.58 61.536 690.431 64.509 695.03 68.822 C 699.13 72.674 703.159 74.185 708.592 73.896 C 721.683 73.201 733.884 64.917 737.913 52.628 C 741.4 42.01 743.901 31.075 747.139 20.368 C 748.376 16.297 750.446 12.479 752.141 8.543 C 752.933 8.504 753.726 8.467 754.532 8.43 C 756.157 14.78 759.035 21.097 759.2 27.486 C 759.784 49.436 759.423 71.411 758.894 94.181 C 757.782 98.914 757.394 102.882 756.601 106.77 C 755.672 111.434 755.545 116.79 753.072 120.521 C 745.305 132.234 736.259 143.013 723.655 150.021 C 713.567 155.634 703.145 159.93 691.653 154.229 C 688.069 152.458 684.955 149.756 681.62 147.482 Z" data-index="47" style="stroke-width: 1;"/>
    <path fill="#5262EC" opacity="1.000000" stroke="none" d="M 681.62 148.104 C 684.955 149.756 688.069 152.458 691.653 154.229 C 703.145 159.93 713.567 155.634 723.655 150.021 C 736.259 143.013 745.305 132.234 753.072 120.521 C 755.545 116.79 755.672 111.434 756.601 106.77 C 757.394 102.882 757.782 98.914 758.88 94.834 C 759.423 115.088 759.423 135.496 759.423 156.559 C 753.517 158.525 750.612 162.647 747.611 167.708 C 739.997 180.497 731.687 192.896 723.196 205.121 C 715.609 216.037 702.02 216.511 691.389 222.167 C 690.528 222.629 689.027 222.455 688.025 222.064 C 682.718 219.998 678.244 221.269 673.811 225.216 C 675.506 207.768 677.827 190.248 679.842 172.693 C 680.746 164.741 681.051 156.719 681.62 148.104 Z" data-index="48" style="stroke-width: 1;"/>
    <path fill="#A45AED" opacity="1.000000" stroke="none" d="M 345.232 658.713 C 374.747 651.499 399.08 633.991 424.035 618.097 C 469.544 589.116 508.272 552.347 543.427 510.981 C 543.816 514.105 545.012 515.78 548.375 517.844 C 552.834 520.575 555.989 525.738 559.143 530.247 C 565.981 540.019 559.171 548.055 555.225 556.899 C 550.584 561.732 549.694 567.494 547.944 573.273 C 542.496 591.268 535.172 608.413 517.261 618.04 C 508.021 623.009 501.851 629.83 500.67 640.965 C 500.156 645.711 497.127 650.188 495.057 655.252 C 496.391 655.73 498.239 656.393 500.545 657.256 C 473.268 669.959 444.045 677.35 414.029 680.872 C 391.852 683.474 369.438 683.928 347.122 685.174 C 344.191 685.337 341.203 684.515 337.547 683.557 C 328.294 678.013 334.2 667.262 326.279 660.525 C 334.283 661.021 340.41 661.402 347.262 661.827 C 346.178 660.176 345.704 659.445 345.232 658.713 Z" data-index="49" style="visibility: visible; stroke-width: 1;"/>
    <path fill="#7E51E3" opacity="1.000000" stroke="none" d="M 344.705 658.631 C 345.704 659.445 346.178 660.176 347.262 661.827 C 340.41 661.402 334.283 661.021 326.279 660.525 C 334.2 667.262 328.294 678.013 336.978 683.45 C 316.634 682.51 296.14 681.082 275.059 679.655 C 265.999 677.892 257.383 676.596 249.074 674.272 C 226.771 668.042 204.594 661.374 181.86 654.773 C 178.081 651.938 174.773 649.228 171.509 646.469 C 170.203 645.367 168.979 644.163 167.728 643.004 C 169.049 641.579 170.105 639.594 171.73 638.816 C 181.042 634.357 191.572 631.604 199.607 625.519 C 207.985 619.174 214.098 609.808 220.893 601.498 C 221.866 600.312 221.034 597.647 221.034 595.745 C 226.841 598.917 232.413 601.96 238.277 604.641 C 252.007 613.241 264.902 623.245 279.075 630.9 C 297.459 640.838 316.872 648.908 336.478 658.321 C 338.035 658.819 338.952 658.778 339.869 658.737 C 341.3 658.674 342.731 658.611 344.705 658.631 Z" data-index="50" style="visibility: visible; stroke-width: 1;"/>
    <path fill="#58AFFD" opacity="1.000000" stroke="none" d="M 85.578 34.563 C 71.64 38.295 57.786 41.502 43.918 44.716 C 41.916 45.182 39.916 45.687 37.358 46.142 C 40.541 41.894 43.931 37.262 48.129 33.539 C 60.341 22.703 72.792 12.112 85.327 1.64 C 101.724 -12.058 118.259 -25.582 134.81 -39.099 C 136.935 -40.836 139.465 -42.084 142.105 -43.914 C 147.705 -45.043 149.581 -43.045 149.581 -37.427 C 149.567 -28.507 145.204 -22.438 138.338 -18.075 C 130.46 -13.071 122.165 -8.719 113.924 -4.328 C 105.045 0.399 101.113 16.13 107.63 25.114 C 103.183 26.59 98.931 27.794 94.859 29.419 C 91.678 30.688 88.704 32.482 85.578 34.563 Z" data-index="51" style="stroke-width: 1;"/>
    <path fill="#7368F2" opacity="1.000000" stroke="none" d="M 606.167 417.777 C 607.446 414.419 608.987 411.454 610.919 408.343 C 611.197 412.258 611.85 416.708 606.167 417.777 Z" data-index="52" style="stroke-width: 1;"/>
    <path fill="#5981F9" opacity="1.000000" stroke="none" d="M 38.749 330.812 C 47.975 351.361 56.786 372.194 65.623 393.012 C 66.693 395.547 67.957 398.002 68.833 401.284 C 69.222 405.378 69.903 408.687 70.57 411.997 C 70.402 412.137 70.237 412.395 70.07 412.398 C 56.048 412.63 42.043 412.769 28.035 413.118 C 25.673 413.176 23.352 414.135 21.004 414.677 C 21.768 416.723 22.587 418.748 23.255 420.82 C 23.741 422.298 24.02 423.844 24.38 425.357 C 6.594 409.878 -9.317 392.726 -22.101 372.823 C -27.327 364.703 -32.495 356.548 -37.859 347.974 C -37.122 346.395 -36.373 345.053 -35.259 344.159 C -33.676 342.886 -31.785 340.945 -30.091 341.011 C -14.166 341.647 0.827 345.68 15.696 351.717 C 22.574 354.508 31.34 352.849 39.234 352.604 C 40.055 352.576 41.569 348.354 41.332 346.234 C 40.791 341.138 39.388 336.133 38.749 330.812 Z" data-index="53" style="stroke-width: 1;"/>
    <path fill="#6078F6" opacity="1.000000" stroke="none" d="M 24.602 425.77 C 24.02 423.844 23.741 422.298 23.255 420.82 C 22.587 418.748 21.768 416.723 21.004 414.677 C 23.352 414.135 25.673 413.176 28.035 413.118 C 42.043 412.769 56.048 412.63 70.07 412.398 C 70.237 412.395 70.402 412.137 70.57 411.997 C 69.903 408.687 69.222 405.378 68.958 401.776 C 81.631 422.107 93.872 442.73 106.129 463.834 C 98.597 463.034 90.594 462.932 83.563 460.256 C 62.205 452.123 42.264 441.223 24.602 425.77 Z" data-index="54" style="visibility: visible; stroke-width: 1;"/>
    <path fill="#58AFFD" opacity="1.000000" stroke="none" d="M 8.344 181.357 C 8.956 182.936 9.29 184.861 9.441 187.269 C 8.859 185.736 8.469 183.72 8.344 181.357 Z" data-index="55" style="stroke-width: 1;"/>
    <path fill="#58AFFD" opacity="1.000000" stroke="none" d="M 9.817 196.567 C 10.443 197.752 10.817 199.254 10.998 201.211 C 10.387 200.07 9.971 198.478 9.817 196.567 Z" data-index="56" style="stroke-width: 1;"/>
    <path fill="#58AFFD" opacity="1.000000" stroke="none" d="M 11.361 208.928 C 11.818 209.432 12.027 210.169 12.055 211.162 C 11.624 210.663 11.361 209.91 11.361 208.928 Z" data-index="57" style="stroke-width: 1;"/>
    <path fill="#58AFFD" opacity="1.000000" stroke="none" d="M 14.152 229.753 C 14.682 230.215 14.974 230.879 15.098 231.887 C 14.598 231.473 14.263 230.715 14.152 229.753 Z" data-index="58" style="stroke-width: 1;"/>
    <path fill="#8164F0" opacity="1.000000" stroke="none" d="M 553.641 498.887 C 555.196 496.053 557.295 493.211 559.838 490.328 C 558.254 493.149 556.211 496.014 553.641 498.887 Z" data-index="59" style="visibility: visible; stroke-width: 1;"/>
    <path fill="#8164F0" opacity="1.000000" stroke="none" d="M 548.055 505.823 C 548.805 504.025 550.111 502.216 551.834 500.142 C 551.028 501.856 549.833 503.837 548.055 505.823 Z" data-index="60" style="visibility: visible; stroke-width: 1;"/>
    <path fill="#428EFC" opacity="1.000000" stroke="none" d="M 284.119 -49.731 C 282.506 -47.976 280.354 -46.248 277.756 -44.393 C 276.227 -47.403 277.477 -48.494 284.119 -49.731 Z" data-index="61" style="stroke-width: 1;"/>
    <path fill="#428EFC" opacity="1.000000" stroke="none" d="M 271.683 -41.281 C 271.669 -40.879 271.474 -40.737 270.905 -40.542 C 270.848 -40.84 271.169 -41.189 271.683 -41.281 Z" data-index="62" style="stroke-width: 1;"/>
    <path fill="#4061E8" opacity="1.000000" stroke="none" d="M 668.073 240.463 C 667.712 239.727 667.794 238.907 668.086 237.732 C 668.365 238.377 668.433 239.379 668.073 240.463 Z" data-index="63" style="stroke-width: 1;"/>
    <path fill="#4853DC" opacity="1.000000" stroke="none" d="M 127.432 494.419 C 128.292 494.818 129.141 495.754 130.015 497.171 C 129.168 496.752 128.278 495.851 127.432 494.419 Z" data-index="64" style="visibility: visible; stroke-width: 1;"/>
    <path fill="#455CE4" opacity="1.000000" stroke="none" d="M 272.169 308.199 C 259.412 299.571 246.837 290.675 233.858 282.395 C 222.367 275.066 210.375 268.518 198.716 261.453 C 184.265 252.702 176.873 239.377 176.566 222.866 C 176.093 196.731 176.663 170.577 177.456 143.94 C 182.388 149.162 189.113 149.691 195.2 151.673 C 198.008 152.59 200.73 153.862 203.399 155.178 C 209.318 158.111 215.085 161.409 221.116 164.109 C 226.465 166.505 231.426 165.605 236.804 162.607 C 245.766 157.612 255.619 156.675 265.735 160.619 C 265.93 169.789 266.694 178.393 265.861 186.839 C 264.637 199.48 271.127 206.527 281.285 212.026 C 280.938 214.678 279.77 217.298 280.547 219.028 C 284.147 226.908 288.69 234.356 292.11 242.301 C 295.96 251.257 298.96 260.578 301.74 269.764 C 282.201 270.709 265.985 279.995 249.31 285.851 C 256.245 291.264 263.053 296.309 269.487 301.819 C 271.043 303.164 271.308 306.031 272.169 308.199 Z" data-index="65" style="opacity: 1; stroke-width: 1;"/>
    <path fill="#3A67EB" opacity="1.000000" stroke="none" d="M 265.596 159.979 C 255.619 156.675 245.766 157.612 236.804 162.607 C 231.426 165.605 226.465 166.505 221.116 164.109 C 215.085 161.409 209.318 158.111 203.399 155.178 C 200.73 153.862 198.008 152.59 195.2 151.673 C 189.113 149.691 182.388 149.162 177.609 143.377 C 174.69 119.787 182.847 102.182 204.233 90.356 C 239.237 71.003 273.642 50.6 308.438 30.901 C 314.426 27.516 321.124 25.414 328.029 23.211 C 322.18 34.01 317.484 44.96 315.746 57.535 C 313.759 69.273 312.119 80.615 310.16 92.329 C 305.449 107.302 301.072 121.901 296.291 136.705 C 288.801 141.59 281.562 146.055 274.713 151.044 C 271.308 153.524 268.612 156.971 265.596 159.979 Z" data-index="66" style="stroke-width: 1;"/>
    <path fill="#647AFC" opacity="1.000000" stroke="none" d="M 302.324 269.738 C 298.96 260.578 295.96 251.257 292.11 242.301 C 288.69 234.356 284.147 226.908 280.547 219.028 C 279.77 217.298 280.938 214.678 281.785 211.978 C 300.002 221.587 317.58 231.821 335.394 241.639 C 337.965 243.062 342.453 243.894 344.691 242.614 C 368.341 229.072 391.714 215.046 415.782 201.274 C 417.768 201.607 419.2 201.638 420.493 202.069 C 430.149 205.304 439.876 206.768 450.09 204.686 C 464.457 201.757 478.923 199.297 493.319 196.568 C 501.129 195.091 502.004 195.952 502.504 203.706 C 502.672 206.334 504.548 208.855 505.644 211.424 C 506.923 222.008 506.173 232.274 499.85 242.009 C 493.097 242.209 487.386 242.541 481.717 242.201 C 474.601 241.774 468.099 237.899 460.276 241.816 C 450.646 246.638 440.085 249.685 429.787 253.047 C 420.186 256.185 410.168 258.154 400.719 261.669 C 384.599 267.657 368.716 274.301 352.862 280.958 C 337.839 287.261 321.734 283.557 306.033 286.02 C 304.56 280.313 303.448 275.026 302.324 269.738 Z" data-index="67" style="stroke-width: 1;"/>
    <path fill="#7476FC" opacity="1.000000" stroke="none" d="M 306.381 286.441 C 321.734 283.557 337.839 287.261 352.862 280.958 C 368.716 274.301 384.599 267.657 400.719 261.669 C 410.168 258.154 420.186 256.185 429.787 253.047 C 440.085 249.685 450.646 246.638 460.276 241.816 C 468.099 237.899 474.601 241.774 481.717 242.201 C 487.386 242.541 493.097 242.209 499.392 242.155 C 498.28 251.574 490.998 256.497 483.801 261.007 C 466.348 271.936 448.59 282.374 430.969 293.04 C 427.397 295.195 423.897 297.453 420.395 299.701 C 412.391 304.82 409.5 312.529 408.721 322.058 C 407.082 319.081 406.082 315.66 404.721 311.051 C 401.566 312.856 398.385 314.855 395.05 316.554 C 386.476 320.919 378.193 326.323 369.133 329.154 C 355.779 333.321 341.884 335.808 328.155 338.629 C 320.637 340.174 312.953 340.93 305.268 341.415 C 305.589 322.671 305.977 304.557 306.381 286.441 Z" data-index="68" style="stroke-width: 1;"/>
    <path fill="#4D99FE" opacity="1.000000" stroke="none" d="M 296.695 136.502 C 301.072 121.901 305.449 107.302 310.631 92.223 C 314.745 87.663 317.997 88.283 322.805 90.004 C 329.725 92.489 337.381 93.761 344.774 93.945 C 353.445 94.158 362.143 92.361 370.856 91.957 C 387.323 91.194 403.261 93.457 419.172 98.38 C 442.377 105.559 465.973 111.483 490.623 111.328 C 494.973 111.302 497.363 110.511 496.835 105.738 C 499.947 113.321 504.714 120.681 505.77 128.539 C 507.285 139.792 506.105 151.412 505.41 163.457 C 501.199 157.772 494.737 157.167 488.693 155.915 C 474.728 153.022 460.219 151.733 446.88 147.081 C 432.401 142.033 417.879 142.375 403.734 141.93 C 406.165 144.751 408.903 147.931 411.155 150.959 C 389.601 138.839 368.495 126.964 347.526 114.828 C 342.565 111.959 338.591 111.731 333.603 115.085 C 324.417 121.264 314.759 126.739 305.226 132.38 C 302.517 133.983 299.544 135.14 296.695 136.502 Z" data-index="69" style="stroke-width: 1;"/>
    <path fill="#876EFA" opacity="1.000000" stroke="none" d="M 305.352 342.044 C 312.953 340.93 320.637 340.174 328.155 338.629 C 341.884 335.808 355.779 333.321 369.133 329.154 C 378.193 326.323 386.476 320.919 395.05 316.554 C 398.385 314.855 401.566 312.856 404.721 311.051 C 406.082 315.66 407.082 319.081 408.598 322.524 C 409.292 329.439 409.528 336.332 409.653 343.225 C 409.876 354.837 404.568 363.607 395.16 369.873 C 389.615 373.561 383.682 376.658 377.846 379.877 C 370.176 384.108 364.368 389.4 365.284 399.773 C 359.907 390.787 353.348 395.658 347.165 398.195 C 345.498 398.881 344.024 400.07 342.439 400.988 C 330.961 407.637 319.664 414.987 305.24 410.883 C 305.144 389.352 305.129 368.474 305.129 347.039 C 305.212 345.005 305.282 343.525 305.352 342.044 Z" data-index="70" style="stroke-width: 1;"/>
    <path fill="#AE66FA" opacity="1.000000" stroke="none" d="M 381.848 458.064 C 392.505 460.535 399.967 467.493 406.513 475.683 C 407.485 476.904 408.583 478.533 408.569 479.966 C 408.445 492.688 408.097 505.41 406.916 518.04 C 405.706 516.86 405.221 515.784 405.137 514.675 C 404.54 507.214 403.303 506.028 395.73 507.669 C 389.019 509.124 382.307 510.878 375.859 513.233 C 360.976 518.668 346.33 524.785 331.435 530.161 C 322.889 533.24 314.009 535.406 305.282 537.404 C 305.643 533.869 306.283 530.919 306.296 527.962 C 306.408 511.376 306.367 494.79 306.991 478.199 C 321.526 477.981 334.421 475.203 344.566 464.525 C 347.039 461.922 350.249 459.667 353.543 458.267 C 359.712 455.652 365.91 452.366 372.705 458.008 C 374.524 459.514 378.735 458.126 381.848 458.064 Z" data-index="71" style="visibility: visible; stroke-width: 1;"/>
    <path fill="#558EFA" opacity="1.000000" stroke="none" d="M 411.626 151.111 C 408.903 147.931 406.165 144.751 403.734 141.93 C 417.879 142.375 432.401 142.033 446.88 147.081 C 460.219 151.733 474.728 153.022 488.693 155.915 C 494.737 157.167 501.199 157.772 505.214 164.078 C 505.813 179.467 505.936 194.819 505.854 210.797 C 504.548 208.855 502.672 206.334 502.504 203.706 C 502.004 195.952 501.129 195.091 493.319 196.568 C 478.923 199.297 464.457 201.757 450.09 204.686 C 439.876 206.768 430.149 205.304 420.493 202.069 C 419.2 201.638 417.768 201.607 416.074 200.764 C 416.449 197.059 417.684 193.995 417.768 190.897 C 418.018 182.159 417.449 173.39 417.865 164.665 C 418.144 158.789 416.435 154.378 411.626 151.111 Z" data-index="72" style="stroke-width: 1;"/>
    <path fill="#46A4FE" opacity="1.000000" stroke="none" d="M 496.835 105.256 C 497.363 110.511 494.973 111.302 490.623 111.328 C 465.973 111.483 442.377 105.559 419.172 98.38 C 403.261 93.457 387.323 91.194 370.856 91.957 C 362.143 92.361 353.445 94.158 344.774 93.945 C 337.381 93.761 329.725 92.489 322.805 90.004 C 317.997 88.283 314.745 87.663 310.966 91.848 C 312.119 80.615 313.759 69.273 316.357 57.538 C 324.042 58.534 330.74 60.007 337.493 61.289 C 356.892 64.981 376.359 68.326 395.688 72.342 C 406.679 74.625 417.364 78.414 428.357 80.702 C 441.517 83.445 454.856 85.355 468.126 87.474 C 469.267 87.656 470.601 86.688 471.836 86.258 C 481.245 90.976 490.791 95.506 496.835 105.256 Z" data-index="73" style="stroke-width: 1;"/>
    <path fill="#42B4FF" opacity="1.000000" stroke="none" d="M 471.517 85.902 C 470.601 86.688 469.267 87.656 468.126 87.474 C 454.856 85.355 441.517 83.445 428.357 80.702 C 417.364 78.414 406.679 74.625 395.688 72.342 C 376.359 68.326 356.892 64.981 337.493 61.289 C 330.74 60.007 324.042 58.534 316.705 57.144 C 317.484 44.96 322.18 34.01 328.599 23.112 C 342.83 17.436 356.405 19.357 369.245 26.703 C 398.704 43.556 428.051 60.589 457.441 77.552 C 462.04 80.204 466.613 82.883 471.517 85.902 Z" data-index="74" style="stroke-width: 1;"/>
    <path fill="#BF66FB" opacity="1.000000" stroke="none" d="M 305.282 537.983 C 314.009 535.406 322.889 533.24 331.435 530.161 C 346.33 524.785 360.976 518.668 375.859 513.233 C 382.307 510.878 389.019 509.124 395.73 507.669 C 403.303 506.028 404.54 507.214 405.137 514.675 C 405.221 515.784 405.706 516.86 406.457 518.346 C 406.79 519.729 406.693 520.716 406.207 522.411 C 405.624 523.568 405.401 524.013 405.193 524.457 C 403.899 527.801 403.289 531.658 401.205 534.401 C 389.838 549.347 375.428 561.131 358.877 569.513 C 339.729 579.216 322.637 573.532 307.728 557.69 C 306.673 550.464 305.977 544.223 305.282 537.983 Z" data-index="75" style="visibility: visible; stroke-width: 1;"/>
    <path fill="#9F68F6" opacity="1.000000" stroke="none" d="M 381.416 457.808 C 378.735 458.126 374.524 459.514 372.705 458.008 C 365.91 452.366 359.712 455.652 353.543 458.267 C 350.249 459.667 347.039 461.922 344.566 464.525 C 334.421 475.203 321.526 477.981 306.658 478.193 C 305.713 478.188 305.046 478.169 305.06 477.518 C 305.088 456.478 305.102 436.085 305.129 415.171 C 305.199 413.611 305.255 412.573 305.309 411.535 C 319.664 414.987 330.961 407.637 342.439 400.988 C 344.024 400.07 345.498 398.881 347.165 398.195 C 353.348 395.658 359.907 390.787 365.16 400.313 C 365.743 413.285 365.855 426.23 365.965 439.175 C 366.062 451.505 368.898 454.991 381.416 457.808 Z" data-index="76" style="visibility: visible; stroke-width: 1;"/>
    <path fill="#5453DF" opacity="1.000000" stroke="none" d="M 305.268 341.415 C 305.282 343.525 305.212 345.005 304.574 347.108 C 297.904 348.531 291.623 350.62 285.758 349.771 C 279.352 348.841 278.588 351.136 278.617 356.162 C 278.699 369.747 278.783 383.34 278.491 396.92 C 278.45 399.002 276.407 401.041 275.295 403.098 C 275.101 377.251 275.018 351.4 274.629 325.555 C 274.559 320.338 273.35 315.137 272.822 309.236 C 272.753 308.43 272.502 308.32 272.253 308.209 C 272.253 308.209 272.211 308.192 272.196 308.197 C 271.308 306.031 271.043 303.164 269.487 301.819 C 263.053 296.309 256.245 291.264 249.31 285.851 C 265.985 279.995 282.201 270.709 301.74 269.764 C 303.448 275.026 304.56 280.313 306.033 286.02 C 305.977 304.557 305.589 322.671 305.268 341.415 Z" data-index="77" style="stroke-width: 1;"/>
    <path fill="#6153E1" opacity="1.000000" stroke="none" d="M 275.101 403.728 C 276.407 401.041 278.45 399.002 278.491 396.92 C 278.783 383.34 278.699 369.747 278.617 356.162 C 278.588 351.136 279.352 348.841 285.758 349.771 C 291.623 350.62 297.904 348.531 304.56 347.665 C 305.129 368.474 305.144 389.352 305.24 410.883 C 305.255 412.573 305.199 413.611 304.56 415.144 C 297.682 415.918 291.304 416.947 285.12 416.274 C 278.505 415.556 278.575 419.047 278.617 423.563 C 278.699 433.448 278.81 443.339 278.476 453.216 C 278.422 455.066 276.393 456.853 275.268 458.671 C 275.142 440.566 275.031 422.462 275.101 403.728 Z" data-index="78" style="stroke-width: 1;"/>
    <path fill="#7E51E3" opacity="1.000000" stroke="none" d="M 305.046 478.169 C 305.046 478.169 305.713 478.188 306.047 478.195 C 306.367 494.79 306.408 511.376 306.296 527.962 C 306.283 530.919 305.643 533.869 305.282 537.404 C 305.977 544.223 306.673 550.464 307.534 557.277 C 306.824 557.922 305.615 558.402 305.157 558.005 C 292.068 546.58 278.728 534.994 275.767 516.74 C 274.253 507.309 275.198 497.481 275.656 487.471 C 276.782 495.073 277.284 503.034 277.769 510.995 C 278.631 502.263 278.923 493.539 278.547 484.846 C 278.256 478.406 281.034 477.929 286.536 478.534 C 292.623 479.209 298.876 478.357 305.046 478.169 Z" data-index="79" style="visibility: visible; stroke-width: 1;"/>
    <path fill="#7052E3" opacity="1.000000" stroke="none" d="M 305.06 477.518 C 298.876 478.357 292.623 479.209 286.536 478.534 C 281.034 477.929 278.256 478.406 278.547 484.846 C 278.923 493.539 278.631 502.263 277.769 510.995 C 277.284 503.034 276.782 495.073 275.865 486.862 C 275.254 477.72 275.073 468.827 275.073 459.304 C 276.393 456.853 278.422 455.066 278.476 453.216 C 278.81 443.339 278.699 433.448 278.617 423.563 C 278.575 419.047 278.505 415.556 285.12 416.274 C 291.304 416.947 297.682 415.918 304.545 415.665 C 305.102 436.085 305.088 456.478 305.06 477.518 Z" data-index="80" style="visibility: visible; stroke-width: 1;"/>
    <path fill="#A45AED" opacity="1.000000" stroke="none" d="M 339.564 658.471 C 338.952 658.778 338.035 658.819 337.006 658.526 C 337.673 658.196 338.466 658.201 339.564 658.471 Z" data-index="81" style="visibility: visible; stroke-width: 1;"/>
    <path fill="#AE66FA" opacity="1.000000" stroke="none" d="M 405.54 524.263 C 405.401 524.013 405.624 523.568 406.124 522.902 C 406.25 523.141 406.055 523.604 405.54 524.263 Z" data-index="82" style="visibility: visible; stroke-width: 1;"/>
    <path fill="#455CE4" opacity="1.000000" stroke="none" d="M 272.239 308.368 C 272.502 308.32 272.753 308.43 272.724 308.654 C 272.447 308.767 272.239 308.527 272.239 308.368 Z" data-index="83" style="stroke-width: 1;"/>
    <path fill="#FEFEFF" opacity="1.000000" stroke="none" d="M 411.155 150.959 C 416.435 154.378 418.144 158.789 417.865 164.665 C 417.449 173.39 418.018 182.159 417.768 190.897 C 417.684 193.995 416.449 197.059 415.448 200.648 C 391.714 215.046 368.341 229.072 344.691 242.614 C 342.453 243.894 337.965 243.062 335.394 241.639 C 317.58 231.821 300.002 221.587 281.868 211.536 C 271.127 206.527 264.637 199.48 265.861 186.839 C 266.694 178.393 265.93 169.789 265.735 160.619 C 268.612 156.971 271.308 153.524 274.713 151.044 C 281.562 146.055 288.801 141.59 296.291 136.705 C 299.544 135.14 302.517 133.983 305.226 132.38 C 314.759 126.739 324.417 121.264 333.603 115.085 C 338.591 111.731 342.565 111.959 347.526 114.828 C 368.495 126.964 389.601 138.839 411.155 150.959 Z" data-index="84" style="opacity: 1; stroke-width: 1;"/>
  </g>
</svg>